<svg width="45" height="42" viewBox="0 0 45 42" fill="none" xmlns="http://www.w3.org/2000/svg">
<path fill-rule="evenodd" clip-rule="evenodd" d="M22.3727 0L30.6886 11.2852V4.25141L34.4134 10.0447V16.3406L41.1912 25.539C39.1623 25.6355 37.1438 25.7649 35.1372 25.9344L22.741 8.71465L8.84071 29.5973C11.5558 28.6051 19.6964 26.6747 26.074 27.0137C17.0473 28.4332 8.3171 30.9474 0 35.2882L3.64124 29.6244L22.3738 0.00350577L22.3727 0Z" fill="black"/>
<path fill-rule="evenodd" clip-rule="evenodd" d="M3.47412 39.8256C13.2729 35.7778 28.662 33.7251 39.1728 35.0457C39.5035 35.3624 39.8271 35.7108 39.8177 36.4429C39.7965 38.2002 38.0677 37.275 38.8703 41.3722C39.1869 41.4982 40.4544 41.4899 41.7301 41.4405C43.0071 41.3911 44.2699 41.3039 44.5759 41.1545C45.0632 37.0066 43.4108 38.0612 43.2555 36.3122C43.1908 35.5813 43.4861 35.2106 43.791 34.868C43.5968 29.7798 43.0554 24.4479 37.4075 24.2702C38.7185 25.4848 40.6969 27.554 40.4721 30.8038C27.4451 31.3016 14.9665 33.2932 3.47412 39.8244" fill="black"/>
</svg>
